<?xml version="1.0" encoding="UTF-8" standalone="no"?>
<!-- Created with Inkscape (http://www.inkscape.org/) -->

<svg
   width="1000"
   height="354.66992"
   id="svg3448"
   version="1.1"
   inkscape:version="1.2.2 (732a01da63, 2022-12-09)"
   sodipodi:docname="SCTV_Logo.svg"
   xml:space="preserve"
   xmlns:inkscape="http://www.inkscape.org/namespaces/inkscape"
   xmlns:sodipodi="http://sodipodi.sourceforge.net/DTD/sodipodi-0.dtd"
   xmlns:xlink="http://www.w3.org/1999/xlink"
   xmlns="http://www.w3.org/2000/svg"
   xmlns:svg="http://www.w3.org/2000/svg"
   xmlns:rdf="http://www.w3.org/1999/02/22-rdf-syntax-ns#"
   xmlns:cc="http://creativecommons.org/ns#"
   xmlns:dc="http://purl.org/dc/elements/1.1/"><defs
     id="defs3450"><linearGradient
       id="linearGradient4334"><stop
         style="stop-color:#003399;stop-opacity:1;"
         offset="0"
         id="stop1673" /><stop
         id="stop1675"
         offset="0.27793509"
         style="stop-color:#0077cc;stop-opacity:1;" /><stop
         id="stop1677"
         offset="0.52260387"
         style="stop-color:#003399;stop-opacity:1;" /><stop
         id="stop1679"
         offset="0.75953472"
         style="stop-color:#0077cc;stop-opacity:1;" /><stop
         style="stop-color:#003399;stop-opacity:1;"
         offset="1"
         id="stop1681" /></linearGradient><linearGradient
       id="linearGradient1671"><stop
         style="stop-color:#ffea00;stop-opacity:1;"
         offset="0.05"
         id="stop1667" /><stop
         style="stop-color:#ff5700;stop-opacity:1;"
         offset="1"
         id="stop1669" /></linearGradient><inkscape:perspective
       sodipodi:type="inkscape:persp3d"
       inkscape:vp_x="0 : 527.00905 : 1"
       inkscape:vp_y="0 : 1000 : 0"
       inkscape:vp_z="744.09448 : 527.00905 : 1"
       inkscape:persp3d-origin="372.04724 : 351.61535 : 1"
       id="perspective3456" /><inkscape:perspective
       id="perspective3466"
       inkscape:persp3d-origin="0.5 : 1.1612531 : 1"
       inkscape:vp_z="1 : 1.3279531 : 1"
       inkscape:vp_y="0 : 1000 : 0"
       inkscape:vp_x="0 : 1.3279531 : 1"
       sodipodi:type="inkscape:persp3d" /><inkscape:perspective
       id="perspective4256"
       inkscape:persp3d-origin="0.5 : 1.1612531 : 1"
       inkscape:vp_z="1 : 1.3279531 : 1"
       inkscape:vp_y="0 : 1000 : 0"
       inkscape:vp_x="0 : 1.3279531 : 1"
       sodipodi:type="inkscape:persp3d" /><radialGradient
       inkscape:collect="always"
       xlink:href="#linearGradient1671"
       id="radialGradient4306"
       cx="342.84991"
       cy="632.28308"
       fx="342.84991"
       fy="632.28308"
       r="32.67857"
       gradientUnits="userSpaceOnUse"
       gradientTransform="matrix(-3.1884378,-2.9798289,3.0115313,-3.2223594,-604.97439,3176.5305)" /><inkscape:perspective
       id="perspective4316"
       inkscape:persp3d-origin="0.5 : 1.1612531 : 1"
       inkscape:vp_z="1 : 1.3279531 : 1"
       inkscape:vp_y="0 : 1000 : 0"
       inkscape:vp_x="0 : 1.3279531 : 1"
       sodipodi:type="inkscape:persp3d" /><linearGradient
       inkscape:collect="always"
       xlink:href="#linearGradient4334"
       id="linearGradient1665"
       x1="511.78076"
       y1="585.09729"
       x2="1317.3533"
       y2="906.83246"
       gradientUnits="userSpaceOnUse" /><linearGradient
       inkscape:collect="always"
       xlink:href="#linearGradient4334"
       id="linearGradient5036"
       gradientUnits="userSpaceOnUse"
       x1="511.78076"
       y1="585.09729"
       x2="1317.3533"
       y2="906.83246" /><linearGradient
       inkscape:collect="always"
       xlink:href="#linearGradient4334"
       id="linearGradient5038"
       gradientUnits="userSpaceOnUse"
       x1="511.78076"
       y1="585.09729"
       x2="1317.3533"
       y2="906.83246" /><linearGradient
       inkscape:collect="always"
       xlink:href="#linearGradient4334"
       id="linearGradient5040"
       gradientUnits="userSpaceOnUse"
       x1="511.78076"
       y1="585.09729"
       x2="1317.3533"
       y2="906.83246" /><linearGradient
       inkscape:collect="always"
       xlink:href="#linearGradient4334"
       id="linearGradient5042"
       gradientUnits="userSpaceOnUse"
       x1="511.78076"
       y1="585.09729"
       x2="1317.3533"
       y2="906.83246" /></defs><sodipodi:namedview
     id="base"
     pagecolor="#ffffff"
     bordercolor="#666666"
     borderopacity="1.0"
     inkscape:pageopacity="0.0"
     inkscape:pageshadow="2"
     inkscape:zoom="0.6"
     inkscape:cx="395.83333"
     inkscape:cy="196.66667"
     inkscape:document-units="px"
     inkscape:current-layer="svg3448"
     showgrid="false"
     inkscape:window-width="1366"
     inkscape:window-height="705"
     inkscape:window-x="-8"
     inkscape:window-y="-8"
     inkscape:window-maximized="1"
     inkscape:showpageshadow="0"
     inkscape:pagecheckerboard="1"
     inkscape:deskcolor="#d1d1d1"
     showguides="true" /><metadata
     id="metadata3453"><rdf:RDF><cc:Work
         rdf:about=""><dc:format>image/svg+xml</dc:format><dc:type
           rdf:resource="http://purl.org/dc/dcmitype/StillImage" /></cc:Work></rdf:RDF></metadata><g
     id="g2420"><g
       id="g2406"><g
         id="g1535"
         style="fill:#012d78;fill-opacity:1"
         transform="translate(-235.8683,192.04934)"><path
           id="path1520"
           style="font-weight:800;font-size:323.532px;font-family:Interstate;-inkscape-font-specification:'Interstate Ultra-Bold';font-variant-ligatures:no-common-ligatures;fill:#012d78;fill-opacity:1;fill-rule:evenodd;stroke-width:32.7455;stroke-miterlimit:5.8"
           d="m 567.34096,-71.783715 c -53.38625,0 -94.9668,25.614015 -94.9668,66.5507812 0,25.5542728 17.25779,41.4954328 36.94922,52.5019528 10.43852,6.769129 22.14577,11.875642 32.65625,16.06836 8.92047,3.558449 17.15379,7.12983 23.92578,10.8125 6.36199,4.369039 10.26953,8.945324 10.26953,13.898437 0,10.817196 -10.32976,14.441404 -25.2168,14.441404 -13.99296,0 -32.9746,-6.905252 -49.9375,-16.585935 -1.97257,-1.260303 -3.94392,-2.523981 -5.81445,-3.84375 l -6.91406,-4.164063 -26.07422,52.308598 c 0,0 8.57982,5.39899 12.66211,7.95312 31.40407,19.64831 60.49274,24.46289 89.95703,24.46289 58.35413,0 89.09375,-29.9905 89.09375,-66.26367 0,-29.12228 -18.92919,-46.621789 -39.01172,-57.681641 C 606.09214,32.980893 596.62711,28.682114 588.12025,25.376441 578.70037,21.71598 570.77152,18.086182 564.3351,14.534644 556.87092,9.5044421 552.82338,4.6909894 552.82338,0.26901937 c 0,-6.85025557 6.1384,-13.15820337 19.28125,-13.15820337 19.8944,0 37.75312,4.9975847 54.32422,14.2480471 0.73848,0.4757655 1.49104,0.9013434 2.22461,1.3945313 l 6.91601,4.1621093 25.29297,-52.9062497 -6.91602,-4.16211 c -16.92765,-10.368806 -45.33239,-21.630859 -86.60546,-21.630859 z" /><path
           id="path1523"
           style="font-weight:800;font-size:323.532px;font-family:Interstate;-inkscape-font-specification:'Interstate Ultra-Bold';font-variant-ligatures:no-common-ligatures;fill:#012d78;fill-opacity:1;fill-rule:evenodd;stroke-width:32.1884;stroke-miterlimit:5.8"
           d="m 760.28822,-71.783715 c -86.23117,0 -120.83398,58.705912 -120.83398,114.490234 0,44.24051 20.27395,79.895341 55.00477,100.394151 19.48901,11.50279 42.98642,19.51991 71.39171,19.51991 34.53154,0 55.64222,-5.3976 75.58594,-16.23047 l -15.36524,-48.955075 -6.91406,-4.162109 c -19.1325,11.096604 -32.86744,11.462894 -48.60742,11.462894 -9.13782,0 -17.62786,-2.25933 -25.1875,-6.132816 -16.01494,-11.324383 -26.25781,-30.715437 -26.25781,-51.732422 0,-30.18931 18.12315,-60.632813 53.95703,-60.632813 11.30519,0 20.96339,1.449691 30.79492,6.5312504 3.09598,2.1349311 6.24572,4.6508142 9.50977,7.6503906 l 6.91406,4.1621094 24.83984,-48.2343754 c -4.00193,-2.707849 -8.20124,-5.381115 -12.67187,-7.93164 -16.76397,-10.694861 -37.18472,-20.199219 -72.16016,-20.199219 z"
           sodipodi:nodetypes="sssscccscsscccccs" /><path
           id="path1526"
           style="font-weight:800;font-size:323.532px;font-family:Interstate;-inkscape-font-specification:'Interstate Ultra-Bold';font-variant-ligatures:no-common-ligatures;fill:#012d78;fill-opacity:1;fill-rule:evenodd;stroke-width:31.5168;stroke-miterlimit:5.8"
           d="m 830.64369,-66.166528 v 48.736329 l 6.91602,4.162109 h 55.31445 v 166.10937 l 6.91406,4.16407 h 68.4961 V -13.26809 h 62.44138 v -48.736328 l -6.914,-4.16211 z"
           sodipodi:nodetypes="cccccccccccc" /><path
           id="path1529"
           style="font-weight:800;font-size:323.532px;font-family:Interstate;-inkscape-font-specification:'Interstate Ultra-Bold';font-variant-ligatures:no-common-ligatures;fill:#012d78;fill-opacity:1;fill-rule:evenodd;stroke-width:33.1465;stroke-miterlimit:5.8"
           d="m 1003.8761,-66.166528 84.8203,219.007808 6.9141,4.16407 h 55.6465 l 84.6113,-219.009768 -6.9141,-4.16211 h -71.914 l -36.2871,111.199219 -36.9512,-107.037109 -6.9141,-4.16211 z"
           sodipodi:nodetypes="ccccccccccc" /></g><g
         id="g1657"
         style="display:inline;fill:url(#linearGradient1665);fill-opacity:1"
         transform="matrix(0.7072063,0,0,0.7072063,-59.928199,-344.20155)"><path
           d="m 523.14167,752.762 c 0,-9.6864 8.67988,-18.607 27.26412,-18.607 33.36788,0 62.7162,9.83677 89.73812,28.004 l 35.76485,-74.81001 c -23.93606,-14.6617 -64.1003,-30.585 -122.4613,-30.585 -75.48922,0 -134.28646,36.2186 -134.28646,94.10401 0,51.78015 50.09098,75.69376 88.64707,91.0741 31.8705,12.7134 58.12992,25.49862 58.12992,40.8259 0,15.29573 -14.60744,20.42001 -35.65799,20.42001 -24.93193,0 -61.14467,-15.39488 -88.611,-34.774 l -36.86913,73.96339 c 47.35528,32.5771 91.12262,39.9516 135.32941,39.9516 82.51393,0 125.97972,-42.40837 125.97972,-93.69938 0,-54.96152 -47.67895,-80.64525 -83.28049,-94.47961 -37.83979,-14.70413 -59.68684,-29.10735 -59.68684,-41.38801 z"
           id="path1223"
           style="font-weight:800;font-size:323.532px;font-family:Interstate;-inkscape-font-specification:'Interstate Ultra-Bold';font-variant-ligatures:no-common-ligatures;opacity:1;fill:url(#linearGradient5036);fill-opacity:1;fill-rule:evenodd;stroke-width:46.3026;stroke-miterlimit:5.8"
           sodipodi:nodetypes="ssccsssssccssss" /><path
           d="m 909.51885,890.15493 c -27.05371,15.69081 -46.4742,16.21007 -68.73085,16.21007 -46.97858,0 -82.523,-41.09359 -82.523,-87.70942 0,-42.68825 25.6252,-85.73358 76.295,-85.73358 24.64812,0 43.75887,4.79154 66.76978,25.938 L 936.454,690.65485 c -25.34516,-17.14937 -54.95444,-33.89086 -110.177,-33.89086 -121.93251,0 -170.862,83.0115 -170.862,161.89159 0,94.01674 63.07871,163.67342 168.95043,163.67343 48.82823,0 78.67676,-7.63312 106.87756,-22.95101 z"
           id="path1225"
           style="font-weight:800;font-size:323.532px;font-family:Interstate;-inkscape-font-specification:'Interstate Ultra-Bold';font-variant-ligatures:no-common-ligatures;opacity:1;fill:url(#linearGradient5038);fill-opacity:1;fill-rule:evenodd;stroke-width:45.5148;stroke-miterlimit:5.8"
           sodipodi:nodetypes="csssccssscc" /><path
           d="M 1198.9019,664.70532 H 925.76174 V 733.62 h 87.99226 v 240.76769 h 96.8538 V 733.62 h 88.2941 z"
           id="path1227"
           style="font-weight:800;font-size:323.532px;font-family:Interstate;-inkscape-font-specification:'Interstate Ultra-Bold';font-variant-ligatures:no-common-ligatures;opacity:1;fill:url(#linearGradient5040);fill-opacity:1;fill-rule:evenodd;stroke-width:44.5652;stroke-miterlimit:5.8"
           sodipodi:nodetypes="ccccccccc" /><path
           id="path1229"
           style="font-weight:800;font-size:323.532px;font-family:Interstate;-inkscape-font-specification:'Interstate Ultra-Bold';font-variant-ligatures:no-common-ligatures;opacity:1;fill:url(#linearGradient5042);fill-opacity:1;fill-rule:evenodd;stroke-width:46.8697;stroke-miterlimit:5.8"
           d="m 1170.713,664.70498 119.937,309.68271 h 78.6838 l 119.6423,-309.68271 h -101.6864 l -55.0757,168.77057 -58.262,-168.77057 z"
           sodipodi:nodetypes="cccccccc" /></g></g><path
       id="path3474"
       style="display:inline;fill:url(#radialGradient4306);fill-opacity:1;stroke-width:1.01432"
       d="M 123.15722,-5.5219999e-7 C 55.139598,-5.6631724e-4 -5.4915022e-4,55.139595 -3.5812651e-7,123.15722 5.4914117e-4,191.17484 55.140348,246.31302 123.15722,246.31246 191.17408,246.31191 246.31192,191.17407 246.31247,123.15722 246.31301,55.140344 191.17485,5.4399665e-4 123.15722,-5.5219999e-7 Z"
       sodipodi:nodetypes="zzzzz" /></g></svg>
